<svg xmlns="http://www.w3.org/2000/svg" viewBox="0 0 33 33" width="100%" height="100%">
	<g>
		<path d="M33 16.5C33 25.61 25.61 33 16.5 33C7.39 33 0 25.61 0 16.5C0 7.39 7.39 0 16.5 0C25.61 0 33 7.39 33 16.5ZM3.09 16.5C3.09 23.9 9.1 29.91 16.5 29.91C23.9 29.91 29.91 23.9 29.91 16.5C29.91 9.1 23.9 3.09 16.5 3.09C9.1 3.09 3.09 9.1 3.09 16.5ZM19.08 10.71L24.24 15.35L24.23 15.35C24.55 15.64 24.75 16.04 24.75 16.5C24.75 16.96 24.55 17.36 24.23 17.65L24.24 17.65L19.08 22.29L19.08 22.29C18.8 22.53 18.45 22.69 18.05 22.69C17.19 22.69 16.5 21.99 16.5 21.14C16.5 20.68 16.7 20.28 17.02 19.99L17.01 19.99L19.17 18.05L9.8 18.05C8.94 18.05 8.25 17.35 8.25 16.5C8.25 15.65 8.94 14.95 9.8 14.95L19.17 14.95L17.01 13.01L17.02 13C16.7 12.72 16.5 12.32 16.5 11.86C16.5 11 17.19 10.31 18.05 10.31C18.45 10.31 18.8 10.47 19.08 10.71L19.08 10.71Z" />
	</g>
</svg>