<svg xmlns="http://www.w3.org/2000/svg" viewBox="0 0 50 40" width="100%" height="100%">
	<g>
		<path d="M49.79 8.81L49.79 8.81L42.76 24.5L42.76 24.5C42.42 25.27 41.67 25.82 40.78 25.88L40.78 25.88L20.53 27.23L21.7 30.59L43.75 30.59C46.34 30.59 48.44 32.7 48.44 35.29C48.44 37.89 46.34 40 43.75 40C41.16 40 39.06 37.89 39.06 35.29L17.19 35.29C17.19 37.89 15.09 40 12.5 40C9.91 40 7.81 37.89 7.81 35.29C7.81 32.7 9.91 30.59 12.5 30.59L16.74 30.59L7.71 4.71L2.34 4.71C1.05 4.71 0 3.65 0 2.35C0 1.05 1.05 0 2.34 0L9.38 0C10.4 0 11.26 0.66 11.58 1.58L11.59 1.58L12.95 5.49L47.66 5.49C48.95 5.49 50 6.54 50 7.84C50 8.19 49.92 8.51 49.79 8.81ZM14.59 10.2L18.93 22.62L39.07 21.28L44.03 10.2L14.59 10.2Z" />
	</g>
</svg>