<svg xmlns="http://www.w3.org/2000/svg" viewBox="0 0 55 48" width="100%" height="100%">
	<g>
		<path d="M52.42 48L2.58 48C1.15 48 0 46.85 0 45.43L0 2.57C0 1.15 1.15 0 2.58 0L52.42 0C53.85 0 55 1.15 55 2.57L55 45.43C55 46.85 53.85 48 52.42 48ZM5.16 2.57C3.73 2.57 2.58 3.72 2.58 5.14C2.58 6.56 3.73 7.71 5.16 7.71C6.58 7.71 7.73 6.56 7.73 5.14C7.73 3.72 6.58 2.57 5.16 2.57ZM12.89 2.57C11.47 2.57 10.31 3.72 10.31 5.14C10.31 6.56 11.47 7.71 12.89 7.71C14.31 7.71 15.47 6.56 15.47 5.14C15.47 3.72 14.31 2.57 12.89 2.57ZM20.63 2.57C19.2 2.57 18.05 3.72 18.05 5.14C18.05 6.56 19.2 7.71 20.63 7.71C22.05 7.71 23.2 6.56 23.2 5.14C23.2 3.72 22.05 2.57 20.63 2.57ZM52.42 10.29L49.84 10.29L5.16 10.29L2.58 10.29L2.58 45.43L52.42 45.43L52.42 10.29Z" />
	</g>
</svg>