<svg xmlns="http://www.w3.org/2000/svg" viewBox="0 0 177 177" width="100%" height="100%">
	<g>
		<path d="M93.1 30.47L138.89 136.42L58.09 89.46L83.58 30.47C85.18 28.91 86.76 28.25 88.32 28.51C89.92 28.23 91.51 28.88 93.1 30.47ZM86.13 108.38L37.8 136.42L57.22 91.57L86.13 108.38ZM88.48 177C64.19 177 43.14 168.27 25.93 151.07C8.73 133.86 0 112.8 0 88.48C0 64.19 8.73 43.14 25.93 25.94C43.14 8.73 64.19 0 88.48 0C112.8 0 133.86 8.73 151.06 25.94L151.06 25.94C151.06 25.94 151.06 25.94 151.06 25.94C168.27 43.14 177 64.19 177 88.48C177 112.8 168.27 133.86 151.06 151.06C133.86 168.27 112.8 177 88.48 177ZM88.48 9.4C66.46 9.4 48.18 16.98 32.58 32.58C16.98 48.18 9.4 66.47 9.4 88.48C9.4 110.52 16.98 128.82 32.58 144.42C48.18 160.02 66.47 167.6 88.48 167.6C110.52 167.6 128.82 160.02 144.42 144.42C160.02 128.82 167.6 110.52 167.6 88.48C167.6 66.47 160.02 48.18 144.42 32.58L144.42 32.58C128.82 16.98 110.52 9.4 88.48 9.4Z"/>
	</g>
</svg>