<svg xmlns="http://www.w3.org/2000/svg" viewBox="0 0 16 13" width="100%" height="100%">
	<g>
		<path d="M16 1.54C15.41 1.8 14.78 1.98 14.11 2.06C14.79 1.65 15.31 1.01 15.56 0.24C14.92 0.62 14.22 0.89 13.47 1.04C12.87 0.4 12.02 0 11.08 0C9.26 0 7.79 1.47 7.79 3.28C7.79 3.54 7.82 3.79 7.88 4.03C5.15 3.89 2.73 2.59 1.11 0.6C0.83 1.08 0.67 1.65 0.67 2.25C0.67 3.39 1.42 4.39 2.31 4.98C1.77 4.96 1 4.82 1 4.57C1 4.58 1 4.6 1 4.61C1 6.2 1.95 7.53 3.45 7.83C3.18 7.91 2.8 7.95 2.5 7.95C2.28 7.95 2.03 7.92 1.83 7.89C2.25 9.19 3.44 10.14 4.88 10.17C3.76 11.05 2.33 11.57 0.79 11.57C0.52 11.57 0.26 11.56 0 11.53C1.45 12.46 3.18 13 5.03 13C11.07 13 14.37 8 14.37 3.66C14.37 3.52 14.37 3.38 14.36 3.24C15 2.77 15.56 2.2 16 1.54L16 1.54Z" />
	</g>
</svg>